<svg version="1.2" xmlns="http://www.w3.org/2000/svg" viewBox="0 0 135 48" width="135" height="48">
	<title>zuttoapp-logo-160x160_-svg</title>
	<style>
		.s0 { fill: #62af44 } 
		.s1 { opacity: 1;fill: #62af44 } 
		.s2 { opacity: 1;fill: #6c975c } 
	</style>
	<g id="layer1">
		<g id="a10234">
			<g id="text678" style="opacity: 1">
				<path id="path1341" class="s0" d="m21.4 35.3q1.3 0 2.2 0.8 0.8 0.8 0.8 2.1 0 1.2-0.8 2.1-0.9 0.8-2.2 0.8h-17.1q-1.4 0-2.2-0.9-0.8-1-0.7-2 0-0.8 0.2-1.3 0.1-0.7 0.8-1.5l13.3-17.2-0.1 0.8h-10.9q-1.2 0-2.1-0.9-0.9-0.8-0.9-2.1 0-1.2 0.9-2 0.9-0.9 2.1-0.9h16.5q1.2 0 2 0.9 0.9 0.9 0.8 2.3-0.1 0.6-0.2 1.1-0.1 0.5-0.7 1.3l-13.1 16.9v-0.3z"/>
				<path id="path1343" class="s0" d="m50.2 12.6q1.4 0 2.3 1 0.9 0.9 0.9 2.2v13.6q0 5.6-3.1 9-3.2 3.3-9.1 3.3-5.9 0-9.1-3.3-3-3.4-3-9v-13.6q0-1.3 0.9-2.2 0.9-1 2.3-1 1.3 0 2.2 1 1 0.9 1 2.2v13.6q0 3.2 1.4 4.8 1.4 1.6 4.3 1.6 2.9 0 4.4-1.6 1.4-1.6 1.4-4.8v-13.6q0-1.3 0.9-2.2 0.9-1 2.3-1z"/>
				<path id="path1345" class="s0" d="m60.7 13.1h12.6q1.3 0 2.2 0.9 0.8 0.8 0.8 2.1 0 1.2-0.8 2.1-0.9 0.8-2.2 0.8h-12.6q-1.3 0-2.2-0.9-0.8-0.8-0.8-2.1 0-1.2 0.8-2 0.9-0.9 2.2-0.9zm5.7-6.6q1.4 0 2.2 0.9 0.9 0.9 0.9 2.3v23.7q0 0.8 0.3 1.3 0.3 0.5 0.8 0.7 0.5 0.2 1.1 0.2 0.7 0 1.2-0.2 0.5-0.3 1.2-0.3 0.8 0 1.4 0.7 0.6 0.7 0.6 1.9 0 1.5-1.7 2.5-1.6 0.9-3.4 0.9-1.1 0-2.5-0.1-1.4-0.2-2.6-0.9-1.2-0.8-2-2.3-0.8-1.5-0.8-4.1v-24q0-1.4 0.9-2.3 1-0.9 2.4-0.9z"/>
				<path id="path1347" class="s0" d="m82.5 13.1h12.6q1.3 0 2.2 0.9 0.8 0.8 0.8 2.1 0 1.2-0.8 2.1-0.9 0.8-2.2 0.8h-12.6q-1.3 0-2.1-0.9-0.9-0.8-0.9-2.1 0-1.2 0.9-2 0.8-0.9 2.1-0.9zm5.7-6.6q1.4 0 2.2 0.9 0.9 0.9 0.9 2.3v23.7q0 0.8 0.3 1.3 0.3 0.5 0.8 0.7 0.5 0.2 1.1 0.2 0.7 0 1.2-0.2 0.5-0.3 1.2-0.3 0.8 0 1.4 0.7 0.6 0.7 0.6 1.9 0 1.5-1.6 2.5-1.6 0.9-3.5 0.9-1.1 0-2.5-0.1-1.4-0.2-2.6-0.9-1.2-0.8-2-2.3-0.8-1.5-0.8-4.1v-24q0-1.4 1-2.3 0.9-0.9 2.3-0.9z"/>
				<path id="path1349" fill-rule="evenodd" class="s0" d="m131.4 26.9q0 4.4-2 7.7-1.9 3.3-5.2 5.2-3.3 1.9-7.3 1.9-4.1 0-7.4-1.9-3.2-1.9-5.2-5.2-1.9-3.3-1.9-7.7 0-4.4 1.9-7.7 2-3.4 5.2-5.2 3.3-1.9 7.4-1.9 4 0 7.3 1.9 3.3 1.8 5.2 5.2 2 3.3 2 7.7zm-6.4 0q0-2.7-1.1-4.7-1.1-2-3-3.2-1.8-1.1-4-1.1-2.2 0-4.1 1.1-1.8 1.2-2.9 3.2-1.1 2-1.1 4.7 0 2.7 1.1 4.7 1.1 2 2.9 3.1 1.9 1.1 4.1 1.1 2.2 0 4-1.1 1.9-1.1 3-3.1 1.1-2 1.1-4.7z"/>
			</g>
			<path id="path1708" class="s1" d="m7.7 8.1q0 0.6-0.2 1.1-0.3 0.6-0.7 1-0.4 0.4-1 0.6-0.5 0.2-1.1 0.2-0.6 0-1.1-0.2-0.6-0.3-1-0.7-0.4-0.4-0.6-0.9-0.3-0.6-0.2-1.2 0-0.6 0.2-1.1 0.2-0.6 0.7-1 0.4-0.4 0.9-0.6 0.6-0.2 1.2-0.2 0.6 0 1.1 0.2 0.5 0.3 1 0.7 0.4 0.4 0.6 0.9 0.2 0.6 0.2 1.2z"/>
			<path id="path1708-9" class="s1" d="m24 8.1q0 0.6-0.2 1.2-0.2 0.5-0.7 0.9-0.4 0.4-0.9 0.6-0.6 0.3-1.2 0.3-0.6 0-1.1-0.3-0.5-0.2-1-0.6-0.4-0.4-0.6-1-0.2-0.5-0.2-1.1 0-0.6 0.2-1.2 0.2-0.5 0.7-0.9 0.4-0.4 0.9-0.7 0.6-0.2 1.2-0.2 0.5 0 1.1 0.2 0.5 0.3 1 0.7 0.4 0.4 0.6 0.9 0.2 0.6 0.2 1.2"/>
			<path id="path1708-9-5" class="s1" d="m15.9 8.1q0 0.6-0.2 1.1-0.2 0.6-0.6 1-0.5 0.4-1 0.6-0.6 0.2-1.1 0.2-0.6 0-1.2-0.2-0.5-0.2-0.9-0.7-0.4-0.4-0.7-0.9-0.2-0.6-0.2-1.1 0-0.6 0.2-1.2 0.2-0.5 0.7-0.9 0.4-0.5 0.9-0.7 0.6-0.2 1.1-0.2 0.6 0 1.2 0.2 0.5 0.2 1 0.6 0.4 0.4 0.6 1 0.2 0.5 0.2 1.1"/>
		</g>
		<path id="path2853" class="s2" d="m4.5 13.3q0 0 0 0.1 0 0 0 0.1 0 0 0 0 0 0 0 0 0 0 0 0 0 0 0 0 0-0.1 0-0.1 0-0.1 0-0.1 0-0.1 0-0.1 0-0.1 0-0.1 0 0 0 0 0-0.1 0-0.1 0 0 0 0.1 0 0 0 0 0 0 0 0.1 0 0 0 0.1z"/>
	</g>
</svg>